<?xml version="1.0" encoding="UTF-8" standalone="no"?>
<svg xmlns="http://www.w3.org/2000/svg" version="1.0" width="151.000000pt" height="131.000000pt" viewBox="0 0 151.000000 131.000000" preserveAspectRatio="xMidYMid meet">
  <metadata>
Created by potrace 1.13, written by Peter Selinger 2001-2015
</metadata>
  <g transform="translate(0.000000,131.000000) scale(0.100000,-0.100000)" fill="#000000" stroke="none">
    <path d="M673 1037 c-33 -31 -37 -40 -41 -96 l-4 -61 59 0 c67 0 103 -19 103 -54 0 -36 -19 -46 -92 -46 l-68 0 0 -85 0 -85 61 0 c76 0 99 -12 99 -50 0 -38 -23 -50 -99 -50 l-61 0 0 -82 0 -83 66 -2 c72 -2 94 -13 94 -49 0 -35 -36 -54 -102 -54 l-58 0 0 -72 c0 -55 5 -81 20 -105 37 -62 43 -63 422 -63 326 0 345 1 376 20 61 37 62 44 62 515 0 454 -1 467 -50 510 -21 19 -38 20 -386 23 l-364 3 -37 -34z m673 -182 c41 -17 45 -25 33 -68 -8 -29 -14 -36 -31 -34 -19 2 -30 -23 -106 -230 -54 -148 -82 -239 -78 -250 7 -16 9 -15 21 7 17 29 20 21 4 -12 -16 -36 -68 -69 -91 -57 -10 5 -22 8 -27 5 -4 -3 -12 15 -18 39 -9 41 -9 44 13 49 16 4 28 21 42 59 134 359 154 420 141 428 -8 5 -17 3 -21 -4 -13 -20 -9 -2 8 39 24 59 32 61 110 29z"></path>
  </g>
</svg>
